#!OML:ASF H:\BreakDance\Project 1\Capture day 1\Session 1\Male.ASF
:FULLY-SPECIFIED
:DEGREES
26
root 22.0657 16.1243 0.488809 157.359 -84.4784 -148.195
lowerback -4.53234 1.17213 -1.06833
upperback 1.69471 1.66899 -1.1299
thorax 4.295 0.811866 -0.431333
lowerneck -1.99276 -1.94862 -4.42301
upperneck -11.4301 -2.60405 3.5799
head -3.23593 -1.34284 2.00692
rclavicle 1.82882e-014 3.02153e-014
rhumerus -21.0661 5.82902 -91.5393
rradius 41.0908
rwrist 11.5537
rhand -35.0805 -24.2199
rfingers 7.12502
rthumb -8.22248 -54.0399
lclavicle 1.82882e-014 3.02153e-014
lhumerus -18.4375 -5.44694 82.2194
lradius 40.6106
lwrist -8.41156
lhand -32.589 -31.1965
lfingers 7.12502
lthumb -5.81745 -1.29637
rfemur -33.299 -5.93193 11.0775
rtibia 47.8263
rfoot -20.4623 -7.48101
rtoes 7.32063
lfemur -22.0978 2.6974 -12.7161
ltibia 42.1722
lfoot -36.9613 14.9466
ltoes -18.3068
27
root 22.0957 16.1231 0.484404 156.259 -84.6434 -147.227
lowerback -4.59902 1.1619 -1.00364
upperback 1.71912 1.6536 -1.14714
thorax 4.36048 0.805898 -0.484928
lowerneck -2.12723 -1.94711 -4.50359
upperneck -11.1788 -2.60432 3.44717
head -3.12476 -1.33294 1.96829
rclavicle -1.07344e-014 9.54166e-015
rhumerus -21.0253 6.0269 -91.4941
rradius 41.2464
rwrist 11.7511
rhand -35.2086 -24.5196
rfingers 7.12502
rthumb -8.34612 -54.3348
lclavicle -1.07344e-014 9.54166e-015
lhumerus -18.3091 -5.24839 82.0093
lradius 40.8496
lwrist -8.48913
lhand -32.6604 -31.3133
lfingers 7.12502
lthumb -5.8863 -1.41507
rfemur -32.7009 -6.12826 10.9272
rtibia 48.2219
rfoot -20.6261 -7.48416
rtoes 7.01736
lfemur -22.1791 2.71591 -12.6722
ltibia 42.2723
lfoot -36.7792 14.8491
ltoes -18.5354
28
root 22.1237 16.1222 0.478279 154.979 -84.8447 -146.064
lowerback -4.68783 1.14325 -0.934506
upperback 1.73045 1.62689 -1.16458
thorax 4.42496 0.794558 -0.541902
lowerneck -2.2593 -1.94181 -4.59942
upperneck -10.9078 -2.59666 3.33213
head -3.00801 -1.31936 1.9381
rclavicle -3.57812e-015 9.54166e-015
rhumerus -20.9895 6.20914 -91.429
rradius 41.3713
rwrist 11.8641
rhand -35.3558 -24.8183
rfingers 7.12502
rthumb -8.48815 -54.6277
lclavicle -3.57812e-015 9.54166e-015
lhumerus -18.218 -5.04871 81.8235
lradius 41.0854
lwrist -8.63184
lhand -32.716 -31.4168
lfingers 7.12502
lthumb -5.94001 -1.52006
rfemur -32.0886 -6.30404 10.7528
rtibia 48.5414
rfoot -20.7956 -7.48513
rtoes 6.72046
lfemur -22.2709 2.71563 -12.6334
ltibia 42.3678
lfoot -36.5879 14.7308
ltoes -18.7574
29
root 22.1495 16.1211 0.470067 153.627 -85.0671 -144.813
lowerback -4.80736 1.12152 -0.873347
upperback 1.73235 1.59694 -1.18339
thorax 4.49681 0.781453 -0.595671
lowerneck -2.38982 -1.93641 -4.68606
upperneck -10.6193 -2.58834 3.20742
head -2.88638 -1.30588 1.90303
rclavicle 1.98785e-014 -1.43125e-014
rhumerus -20.9682 6.37796 -91.3496
rradius 41.4813
rwrist 11.9052
rhand -35.5156 -25.0341
rfingers 7.12502
rthumb -8.64237 -54.8372
lclavicle 1.98785e-014 -1.43125e-014
lhumerus -18.1498 -4.85418 81.6578
lradius 41.3098
lwrist -8.8448
lhand -32.7815 -31.4904
lfingers 7.12502
lthumb -6.00327 -1.59549
rfemur -31.4713 -6.45394 10.5572
rtibia 48.7699
rfoot -20.9751 -7.49307
rtoes 6.4399
lfemur -22.3723 2.69411 -12.6033
ltibia 42.4587
lfoot -36.3959 14.5976
ltoes -18.9553
30
root 22.1729 16.1194 0.459516 152.314 -85.2964 -143.586
lowerback -4.95497 1.10164 -0.826699
upperback 1.72587 1.57083 -1.2072
thorax 4.57561 0.769928 -0.645797
lowerneck -2.5582 -1.92925 -4.76041
upperneck -10.2762 -2.57445 3.07911
head -2.7404 -1.29029 1.86299
rclavicle 1.07344e-014 -1.51076e-014
rhumerus -20.9638 6.52753 -91.2621
rradius 41.584
rwrist 11.8904
rhand -35.6958 -25.1395
rfingers 7.12502
rthumb -8.81624 -54.9354
lclavicle 1.07344e-014 -1.51076e-014
lhumerus -18.0928 -4.68207 81.4986
lradius 41.5184
lwrist -9.08218
lhand -32.8656 -31.5571
lfingers 7.12502
lthumb -6.08444 -1.66445
rfemur -30.8527 -6.56535 10.3434
rtibia 48.8961
rfoot -21.1752 -7.52136
rtoes 6.14641
lfemur -22.4761 2.64768 -12.583
ltibia 42.5447
lfoot -36.211 14.4549
ltoes -19.0933
31
root 22.1938 16.1166 0.446566 151.288 -85.5158 -142.639
lowerback -5.11993 1.09055 -0.80787
upperback 1.71463 1.55868 -1.23768
thorax 4.65882 0.764594 -0.685841
lowerneck -2.80249 -1.91581 -4.84208
upperneck -9.84601 -2.54486 2.97178
head -2.55298 -1.26758 1.82835
rclavicle -1.82882e-014 1.27222e-014
rhumerus -20.9779 6.64581 -91.1634
rradius 41.6958
rwrist 11.8409
rhand -35.8928 -25.17
rfingers 7.12502
rthumb -9.00639 -54.9578
lclavicle -1.82882e-014 1.27222e-014
lhumerus -18.0404 -4.53913 81.3423
lradius 41.715
lwrist -9.31001
lhand -32.9645 -31.6122
lfingers 7.12502
lthumb -6.17997 -1.72233
rfemur -30.2376 -6.6204 10.1095
rtibia 48.9141
rfoot -21.3882 -7.58914
rtoes 5.79117
lfemur -22.5694 2.57118 -12.5793
ltibia 42.6272
lfoot -36.0625 14.3078
ltoes -19.1113
32
root 22.2126 16.1124 0.431248 150.825 -85.7061 -142.248
lowerback -5.29293 1.09825 -0.823194
upperback 1.69936 1.57428 -1.27575
thorax 4.74194 0.772076 -0.711994
lowerneck -3.11515 -1.90381 -4.93966
upperneck -9.33253 -2.50942 2.89392
head -2.3272 -1.24266 1.80405
rclavicle -2.15681e-014 -2.94201e-014
rhumerus -21.0076 6.71494 -91.0441
rradius 41.8241
rwrist 11.7908
rhand -36.1199 -25.2065
rfingers 7.12502
rthumb -9.2255 -54.9847
lclavicle -2.15681e-014 -2.94201e-014
lhumerus -17.9875 -4.43294 81.1924
lradius 41.9048
lwrist -9.50162
lhand -33.0685 -31.6773
lfingers 7.12502
lthumb -6.28036 -1.7904
rfemur -29.6353 -6.59626 9.85651
rtibia 48.8233
rfoot -21.6069 -7.70673
rtoes 5.37237
lfemur -22.6497 2.47422 -12.5959
ltibia 42.7095
lfoot -35.963 14.1805
ltoes -19.02
33
root 22.2298 16.1066 0.413679 151.059 -85.8542 -142.548
lowerback -5.46353 1.13133 -0.864715
upperback 1.67691 1.62586 -1.32161
thorax 4.81607 0.796674 -0.728177
lowerneck -3.43939 -1.89764 -5.02736
upperneck -8.80056 -2.47984 2.81685
head -2.09538 -1.22174 1.77865
rclavicle 3.37934e-015 -8.74653e-015
rhumerus -21.0425 6.73671 -90.9
rradius 41.9498
rwrist 11.7533
rhand -36.3848 -25.2875
rfingers 7.12502
rthumb -9.48107 -55.0543
lclavicle 3.37934e-015 -8.74653e-015
lhumerus -17.9387 -4.37403 81.0501
lradius 42.0914
lwrist -9.63523
lhand -33.1716 -31.7966
lfingers 7.12502
lthumb -6.37985 -1.91267
rfemur -29.0493 -6.4742 9.59136
rtibia 48.6281
rfoot -21.832 -7.86808
rtoes 4.91088
lfemur -22.72 2.38158 -12.628
ltibia 42.7959
lfoot -35.9035 14.0904
ltoes -18.9042
34
root 22.2459 16.0994 0.394111 151.854 -85.9641 -143.405
lowerback -5.62591 1.18505 -0.91783
upperback 1.65017 1.70602 -1.37398
thorax 4.88118 0.835131 -0.741855
lowerneck -3.72377 -1.90145 -5.08412
upperneck -8.3129 -2.4669 2.71985
head -1.88696 -1.21048 1.74366
rclavicle 4.77083e-015 3.18055e-015
rhumerus -21.0634 6.73008 -90.734
rradius 42.0528
rwrist 11.7298
rhand -36.663 -25.4736
rfingers 7.12502
rthumb -9.74951 -55.2279
lclavicle 4.77083e-015 3.18055e-015
lhumerus -17.8943 -4.35117 80.9138
lradius 42.2745
lwrist -9.70948
lhand -33.2457 -31.9896
lfingers 7.12502
lthumb -6.45138 -2.1079
rfemur -28.4746 -6.25534 9.32475
rtibia 48.337
rfoot -22.0524 -8.06155
rtoes 4.37956
lfemur -22.7828 2.30259 -12.665
ltibia 42.8894
lfoot -35.8774 14.0315
ltoes -18.8287
35
root 22.2614 16.0913 0.372581 152.839 -86.0458 -144.45
lowerback -5.77589 1.24838 -0.964632
upperback 1.61897 1.79846 -1.42787
thorax 4.93494 0.879877 -0.75944
lowerneck -3.94387 -1.91461 -5.10706
upperneck -7.89092 -2.47173 2.59805
head -1.71246 -1.20936 1.6975
rclavicle 8.15017e-015 2.14687e-014
rhumerus -21.0628 6.7185 -90.5556
rradius 42.1198
rwrist 11.7269
rhand -36.9738 -25.7275
rfingers 7.12502
rthumb -10.0494 -55.4676
lclavicle 8.15017e-015 2.14687e-014
lhumerus -17.8626 -4.34909 80.7782
lradius 42.4579
lwrist -9.73293
lhand -33.2718 -32.2314
lfingers 7.12502
lthumb -6.4766 -2.35042
rfemur -27.9058 -5.94588 9.07748
rtibia 47.961
rfoot -22.254 -8.2819
rtoes 3.75355
lfemur -22.8415 2.23853 -12.6871
ltibia 42.9903
lfoot -35.8693 13.9855
ltoes -18.7826
